<mxfile host="65bd71144e">
    <diagram id="WE1F_UEaYAuRWVR7fs-w" name="Frontend - example">
        <mxGraphModel dx="2357" dy="779" grid="1" gridSize="10" guides="1" tooltips="1" connect="1" arrows="1" fold="1" page="1" pageScale="1" pageWidth="850" pageHeight="1100" math="0" shadow="0">
            <root>
                <mxCell id="0"/>
                <mxCell id="1" parent="0"/>
                <mxCell id="205" value="" style="rounded=0;whiteSpace=wrap;html=1;" parent="1" vertex="1">
                    <mxGeometry x="480" y="120" width="240" height="240" as="geometry"/>
                </mxCell>
                <mxCell id="3" value="Save" style="rounded=1;fillColor=#0057D8;strokeColor=none;html=1;fontColor=#ffffff;align=center;verticalAlign=middle;fontStyle=0;fontSize=12;sketch=0;" parent="1" vertex="1">
                    <mxGeometry x="620" y="310" width="86" height="33" as="geometry"/>
                </mxCell>
                <mxCell id="172" value="" style="rounded=0;whiteSpace=wrap;html=1;" parent="1" vertex="1">
                    <mxGeometry x="80" y="120" width="240" height="240" as="geometry"/>
                </mxCell>
                <mxCell id="199" style="edgeStyle=none;html=1;" parent="1" source="173" target="172" edge="1">
                    <mxGeometry relative="1" as="geometry"/>
                </mxCell>
                <mxCell id="173" value="User Notes" style="rounded=0;whiteSpace=wrap;html=1;" parent="1" vertex="1">
                    <mxGeometry x="80" y="120" width="240" height="40" as="geometry"/>
                </mxCell>
                <mxCell id="176" value="" style="group;fontStyle=4" parent="1" vertex="1" connectable="0">
                    <mxGeometry x="80" y="160" width="240" height="30" as="geometry"/>
                </mxCell>
                <mxCell id="174" value="Note 1" style="rounded=0;whiteSpace=wrap;html=1;align=left;spacingLeft=5;" parent="176" vertex="1">
                    <mxGeometry width="239.99999999999997" height="30" as="geometry"/>
                </mxCell>
                <mxCell id="170" value="" style="verticalLabelPosition=bottom;shadow=0;dashed=0;verticalAlign=top;strokeWidth=2;html=1;shape=mxgraph.mockup.misc.editIcon;" parent="176" vertex="1">
                    <mxGeometry x="174" y="7.5" width="18" height="15" as="geometry"/>
                </mxCell>
                <mxCell id="175" value="" style="verticalLabelPosition=bottom;verticalAlign=top;html=1;shadow=0;dashed=0;strokeWidth=1;shape=mxgraph.ios.iDeleteApp;fillColor=#cccccc;fillColor2=#000000;strokeColor=#ffffff;sketch=0;" parent="176" vertex="1">
                    <mxGeometry x="203.99999999999997" y="7.5" width="18" height="15" as="geometry"/>
                </mxCell>
                <mxCell id="200" value="2022-05-15" style="text;html=1;align=center;verticalAlign=middle;resizable=0;points=[];autosize=1;strokeColor=none;fillColor=none;" parent="176" vertex="1">
                    <mxGeometry x="70" y="5" width="80" height="20" as="geometry"/>
                </mxCell>
                <mxCell id="177" value="" style="group" parent="1" vertex="1" connectable="0">
                    <mxGeometry x="80" y="190" width="240" height="30" as="geometry"/>
                </mxCell>
                <mxCell id="178" value="Note 2" style="rounded=0;whiteSpace=wrap;html=1;align=left;spacingLeft=5;" parent="177" vertex="1">
                    <mxGeometry width="240" height="30" as="geometry"/>
                </mxCell>
                <mxCell id="179" value="" style="verticalLabelPosition=bottom;shadow=0;dashed=0;verticalAlign=top;strokeWidth=2;html=1;shape=mxgraph.mockup.misc.editIcon;" parent="177" vertex="1">
                    <mxGeometry x="174" y="7.5" width="18" height="15" as="geometry"/>
                </mxCell>
                <mxCell id="180" value="" style="verticalLabelPosition=bottom;verticalAlign=top;html=1;shadow=0;dashed=0;strokeWidth=1;shape=mxgraph.ios.iDeleteApp;fillColor=#cccccc;fillColor2=#000000;strokeColor=#ffffff;sketch=0;" parent="177" vertex="1">
                    <mxGeometry x="204" y="7.5" width="18" height="15" as="geometry"/>
                </mxCell>
                <mxCell id="201" value="2022-05-15" style="text;html=1;align=center;verticalAlign=middle;resizable=0;points=[];autosize=1;strokeColor=none;fillColor=none;" parent="177" vertex="1">
                    <mxGeometry x="70" y="5" width="80" height="20" as="geometry"/>
                </mxCell>
                <mxCell id="181" value="" style="group" parent="1" vertex="1" connectable="0">
                    <mxGeometry x="80" y="220" width="240" height="30" as="geometry"/>
                </mxCell>
                <mxCell id="182" value="Note 3" style="rounded=0;whiteSpace=wrap;html=1;align=left;spacingLeft=5;" parent="181" vertex="1">
                    <mxGeometry width="240" height="30" as="geometry"/>
                </mxCell>
                <mxCell id="183" value="" style="verticalLabelPosition=bottom;shadow=0;dashed=0;verticalAlign=top;strokeWidth=2;html=1;shape=mxgraph.mockup.misc.editIcon;" parent="181" vertex="1">
                    <mxGeometry x="174" y="7.5" width="18" height="15" as="geometry"/>
                </mxCell>
                <mxCell id="184" value="" style="verticalLabelPosition=bottom;verticalAlign=top;html=1;shadow=0;dashed=0;strokeWidth=1;shape=mxgraph.ios.iDeleteApp;fillColor=#cccccc;fillColor2=#000000;strokeColor=#ffffff;sketch=0;" parent="181" vertex="1">
                    <mxGeometry x="204" y="7.5" width="18" height="15" as="geometry"/>
                </mxCell>
                <mxCell id="202" value="2022-05-15" style="text;html=1;align=center;verticalAlign=middle;resizable=0;points=[];autosize=1;strokeColor=none;fillColor=none;" parent="181" vertex="1">
                    <mxGeometry x="70" y="5" width="80" height="20" as="geometry"/>
                </mxCell>
                <mxCell id="185" value="" style="group" parent="1" vertex="1" connectable="0">
                    <mxGeometry x="80" y="250" width="240" height="30" as="geometry"/>
                </mxCell>
                <mxCell id="186" value="Note 4" style="rounded=0;whiteSpace=wrap;html=1;align=left;spacingLeft=5;" parent="185" vertex="1">
                    <mxGeometry width="240" height="30" as="geometry"/>
                </mxCell>
                <mxCell id="187" value="" style="verticalLabelPosition=bottom;shadow=0;dashed=0;verticalAlign=top;strokeWidth=2;html=1;shape=mxgraph.mockup.misc.editIcon;" parent="185" vertex="1">
                    <mxGeometry x="174" y="7.5" width="18" height="15" as="geometry"/>
                </mxCell>
                <mxCell id="188" value="" style="verticalLabelPosition=bottom;verticalAlign=top;html=1;shadow=0;dashed=0;strokeWidth=1;shape=mxgraph.ios.iDeleteApp;fillColor=#cccccc;fillColor2=#000000;strokeColor=#ffffff;sketch=0;" parent="185" vertex="1">
                    <mxGeometry x="204" y="7.5" width="18" height="15" as="geometry"/>
                </mxCell>
                <mxCell id="203" value="2022-05-15" style="text;html=1;align=center;verticalAlign=middle;resizable=0;points=[];autosize=1;strokeColor=none;fillColor=none;" parent="185" vertex="1">
                    <mxGeometry x="70" y="5" width="80" height="20" as="geometry"/>
                </mxCell>
                <mxCell id="189" value="" style="group" parent="1" vertex="1" connectable="0">
                    <mxGeometry x="80" y="280" width="240" height="30" as="geometry"/>
                </mxCell>
                <mxCell id="190" value="Note 5" style="rounded=0;whiteSpace=wrap;html=1;align=left;spacingLeft=5;" parent="189" vertex="1">
                    <mxGeometry width="240" height="30" as="geometry"/>
                </mxCell>
                <mxCell id="191" value="" style="verticalLabelPosition=bottom;shadow=0;dashed=0;verticalAlign=top;strokeWidth=2;html=1;shape=mxgraph.mockup.misc.editIcon;" parent="189" vertex="1">
                    <mxGeometry x="174" y="7.5" width="18" height="15" as="geometry"/>
                </mxCell>
                <mxCell id="192" value="" style="verticalLabelPosition=bottom;verticalAlign=top;html=1;shadow=0;dashed=0;strokeWidth=1;shape=mxgraph.ios.iDeleteApp;fillColor=#cccccc;fillColor2=#000000;strokeColor=#ffffff;sketch=0;" parent="189" vertex="1">
                    <mxGeometry x="204" y="7.5" width="18" height="15" as="geometry"/>
                </mxCell>
                <mxCell id="204" value="2022-05-15" style="text;html=1;align=center;verticalAlign=middle;resizable=0;points=[];autosize=1;strokeColor=none;fillColor=none;" parent="189" vertex="1">
                    <mxGeometry x="70" y="5" width="80" height="20" as="geometry"/>
                </mxCell>
                <mxCell id="193" value="" style="group;fontStyle=4" parent="1" vertex="1" connectable="0">
                    <mxGeometry x="80" y="310" width="240" height="30" as="geometry"/>
                </mxCell>
                <mxCell id="194" value="" style="rounded=0;whiteSpace=wrap;html=1;align=left;spacingLeft=5;" parent="193" vertex="1">
                    <mxGeometry width="240" height="30" as="geometry"/>
                </mxCell>
                <mxCell id="197" value="" style="html=1;verticalLabelPosition=bottom;align=center;labelBackgroundColor=#ffffff;verticalAlign=top;strokeWidth=2;shadow=0;dashed=0;shape=mxgraph.ios7.icons.add;" parent="193" vertex="1">
                    <mxGeometry x="111" y="7.5" width="18" height="15" as="geometry"/>
                </mxCell>
                <mxCell id="206" value="Back" style="rounded=1;fillColor=#647687;strokeColor=#314354;html=1;fontColor=#ffffff;align=center;verticalAlign=middle;fontStyle=0;fontSize=12;sketch=0;" parent="1" vertex="1">
                    <mxGeometry x="545" y="315" width="66" height="23" as="geometry"/>
                </mxCell>
                <mxCell id="209" value="After click Edit Button&lt;br&gt;(Need render the &lt;br&gt;last note data)" style="text;html=1;align=center;verticalAlign=middle;resizable=0;points=[];autosize=1;strokeColor=none;fillColor=none;" parent="1" vertex="1">
                    <mxGeometry x="330" y="270" width="130" height="50" as="geometry"/>
                </mxCell>
                <mxCell id="246" value="" style="group" parent="1" vertex="1" connectable="0">
                    <mxGeometry x="80" y="481" width="240" height="240" as="geometry"/>
                </mxCell>
                <mxCell id="210" value="" style="rounded=0;whiteSpace=wrap;html=1;" parent="246" vertex="1">
                    <mxGeometry width="240" height="240" as="geometry"/>
                </mxCell>
                <mxCell id="211" style="edgeStyle=none;html=1;" parent="246" source="212" target="210" edge="1">
                    <mxGeometry relative="1" as="geometry"/>
                </mxCell>
                <mxCell id="212" value="User Notes" style="rounded=0;whiteSpace=wrap;html=1;" parent="246" vertex="1">
                    <mxGeometry width="240" height="40" as="geometry"/>
                </mxCell>
                <mxCell id="213" value="" style="group;fontStyle=4" parent="246" vertex="1" connectable="0">
                    <mxGeometry y="40" width="240" height="30" as="geometry"/>
                </mxCell>
                <mxCell id="214" value="Note 1" style="rounded=0;whiteSpace=wrap;html=1;align=left;spacingLeft=5;" parent="213" vertex="1">
                    <mxGeometry width="239.99999999999997" height="30" as="geometry"/>
                </mxCell>
                <mxCell id="215" value="" style="verticalLabelPosition=bottom;shadow=0;dashed=0;verticalAlign=top;strokeWidth=2;html=1;shape=mxgraph.mockup.misc.editIcon;" parent="213" vertex="1">
                    <mxGeometry x="174" y="7.5" width="18" height="15" as="geometry"/>
                </mxCell>
                <mxCell id="216" value="" style="verticalLabelPosition=bottom;verticalAlign=top;html=1;shadow=0;dashed=0;strokeWidth=1;shape=mxgraph.ios.iDeleteApp;fillColor=#cccccc;fillColor2=#000000;strokeColor=#ffffff;sketch=0;" parent="213" vertex="1">
                    <mxGeometry x="203.99999999999997" y="7.5" width="18" height="15" as="geometry"/>
                </mxCell>
                <mxCell id="217" value="2022-05-15" style="text;html=1;align=center;verticalAlign=middle;resizable=0;points=[];autosize=1;strokeColor=none;fillColor=none;" parent="213" vertex="1">
                    <mxGeometry x="70" y="5" width="80" height="20" as="geometry"/>
                </mxCell>
                <mxCell id="218" value="" style="group" parent="246" vertex="1" connectable="0">
                    <mxGeometry y="70" width="240" height="30" as="geometry"/>
                </mxCell>
                <mxCell id="219" value="Note 2" style="rounded=0;whiteSpace=wrap;html=1;align=left;spacingLeft=5;" parent="218" vertex="1">
                    <mxGeometry width="240" height="30" as="geometry"/>
                </mxCell>
                <mxCell id="220" value="" style="verticalLabelPosition=bottom;shadow=0;dashed=0;verticalAlign=top;strokeWidth=2;html=1;shape=mxgraph.mockup.misc.editIcon;" parent="218" vertex="1">
                    <mxGeometry x="174" y="7.5" width="18" height="15" as="geometry"/>
                </mxCell>
                <mxCell id="221" value="" style="verticalLabelPosition=bottom;verticalAlign=top;html=1;shadow=0;dashed=0;strokeWidth=1;shape=mxgraph.ios.iDeleteApp;fillColor=#cccccc;fillColor2=#000000;strokeColor=#ffffff;sketch=0;" parent="218" vertex="1">
                    <mxGeometry x="204" y="7.5" width="18" height="15" as="geometry"/>
                </mxCell>
                <mxCell id="222" value="2022-05-15" style="text;html=1;align=center;verticalAlign=middle;resizable=0;points=[];autosize=1;strokeColor=none;fillColor=none;" parent="218" vertex="1">
                    <mxGeometry x="70" y="5" width="80" height="20" as="geometry"/>
                </mxCell>
                <mxCell id="223" value="" style="group" parent="246" vertex="1" connectable="0">
                    <mxGeometry y="100" width="240" height="30" as="geometry"/>
                </mxCell>
                <mxCell id="224" value="Note 3" style="rounded=0;whiteSpace=wrap;html=1;align=left;spacingLeft=5;" parent="223" vertex="1">
                    <mxGeometry width="240" height="30" as="geometry"/>
                </mxCell>
                <mxCell id="225" value="" style="verticalLabelPosition=bottom;shadow=0;dashed=0;verticalAlign=top;strokeWidth=2;html=1;shape=mxgraph.mockup.misc.editIcon;" parent="223" vertex="1">
                    <mxGeometry x="174" y="7.5" width="18" height="15" as="geometry"/>
                </mxCell>
                <mxCell id="226" value="" style="verticalLabelPosition=bottom;verticalAlign=top;html=1;shadow=0;dashed=0;strokeWidth=1;shape=mxgraph.ios.iDeleteApp;fillColor=#cccccc;fillColor2=#000000;strokeColor=#ffffff;sketch=0;" parent="223" vertex="1">
                    <mxGeometry x="204" y="7.5" width="18" height="15" as="geometry"/>
                </mxCell>
                <mxCell id="227" value="2022-05-15" style="text;html=1;align=center;verticalAlign=middle;resizable=0;points=[];autosize=1;strokeColor=none;fillColor=none;" parent="223" vertex="1">
                    <mxGeometry x="70" y="5" width="80" height="20" as="geometry"/>
                </mxCell>
                <mxCell id="228" value="" style="group" parent="246" vertex="1" connectable="0">
                    <mxGeometry y="130" width="240" height="30" as="geometry"/>
                </mxCell>
                <mxCell id="229" value="Note 4" style="rounded=0;whiteSpace=wrap;html=1;align=left;spacingLeft=5;" parent="228" vertex="1">
                    <mxGeometry width="240" height="30" as="geometry"/>
                </mxCell>
                <mxCell id="230" value="" style="verticalLabelPosition=bottom;shadow=0;dashed=0;verticalAlign=top;strokeWidth=2;html=1;shape=mxgraph.mockup.misc.editIcon;" parent="228" vertex="1">
                    <mxGeometry x="174" y="7.5" width="18" height="15" as="geometry"/>
                </mxCell>
                <mxCell id="231" value="" style="verticalLabelPosition=bottom;verticalAlign=top;html=1;shadow=0;dashed=0;strokeWidth=1;shape=mxgraph.ios.iDeleteApp;fillColor=#cccccc;fillColor2=#000000;strokeColor=#ffffff;sketch=0;" parent="228" vertex="1">
                    <mxGeometry x="204" y="7.5" width="18" height="15" as="geometry"/>
                </mxCell>
                <mxCell id="232" value="2022-05-15" style="text;html=1;align=center;verticalAlign=middle;resizable=0;points=[];autosize=1;strokeColor=none;fillColor=none;" parent="228" vertex="1">
                    <mxGeometry x="70" y="5" width="80" height="20" as="geometry"/>
                </mxCell>
                <mxCell id="233" value="" style="group" parent="246" vertex="1" connectable="0">
                    <mxGeometry y="160" width="240" height="30" as="geometry"/>
                </mxCell>
                <mxCell id="234" value="Note 5" style="rounded=0;whiteSpace=wrap;html=1;align=left;spacingLeft=5;" parent="233" vertex="1">
                    <mxGeometry width="240" height="30" as="geometry"/>
                </mxCell>
                <mxCell id="235" value="" style="verticalLabelPosition=bottom;shadow=0;dashed=0;verticalAlign=top;strokeWidth=2;html=1;shape=mxgraph.mockup.misc.editIcon;" parent="233" vertex="1">
                    <mxGeometry x="174" y="7.5" width="18" height="15" as="geometry"/>
                </mxCell>
                <mxCell id="236" value="" style="verticalLabelPosition=bottom;verticalAlign=top;html=1;shadow=0;dashed=0;strokeWidth=1;shape=mxgraph.ios.iDeleteApp;fillColor=#cccccc;fillColor2=#000000;strokeColor=#ffffff;sketch=0;" parent="233" vertex="1">
                    <mxGeometry x="204" y="7.5" width="18" height="15" as="geometry"/>
                </mxCell>
                <mxCell id="237" value="2022-05-15" style="text;html=1;align=center;verticalAlign=middle;resizable=0;points=[];autosize=1;strokeColor=none;fillColor=none;" parent="233" vertex="1">
                    <mxGeometry x="70" y="5" width="80" height="20" as="geometry"/>
                </mxCell>
                <mxCell id="238" value="" style="group;fontStyle=4" parent="246" vertex="1" connectable="0">
                    <mxGeometry y="190" width="240" height="30" as="geometry"/>
                </mxCell>
                <mxCell id="239" value="" style="rounded=0;whiteSpace=wrap;html=1;align=left;spacingLeft=5;" parent="238" vertex="1">
                    <mxGeometry width="240" height="30" as="geometry"/>
                </mxCell>
                <mxCell id="240" value="" style="html=1;verticalLabelPosition=bottom;align=center;labelBackgroundColor=#ffffff;verticalAlign=top;strokeWidth=2;shadow=0;dashed=0;shape=mxgraph.ios7.icons.add;" parent="238" vertex="1">
                    <mxGeometry x="111" y="7.5" width="18" height="15" as="geometry"/>
                </mxCell>
                <mxCell id="283" value="" style="rounded=0;whiteSpace=wrap;html=1;strokeWidth=1;fillColor=#E6E6E6;opacity=50;" parent="246" vertex="1">
                    <mxGeometry width="240" height="240" as="geometry"/>
                </mxCell>
                <mxCell id="247" value="" style="group" parent="1" vertex="1" connectable="0">
                    <mxGeometry x="90" y="547" width="230" height="180" as="geometry"/>
                </mxCell>
                <mxCell id="241" value="Are you sure? You will delete the note:&lt;br&gt;{note_name} - {note_date}" style="rounded=1;whiteSpace=wrap;html=1;verticalAlign=top;spacingTop=9;arcSize=9;" parent="247" vertex="1">
                    <mxGeometry width="220" height="110" as="geometry"/>
                </mxCell>
                <mxCell id="243" value="Delete" style="rounded=1;fillColor=#0057D8;strokeColor=none;html=1;fontColor=#ffffff;align=center;verticalAlign=middle;fontStyle=0;fontSize=12;sketch=0;" parent="247" vertex="1">
                    <mxGeometry x="121" y="60" width="86" height="33" as="geometry"/>
                </mxCell>
                <mxCell id="245" value="Cancel" style="rounded=1;fillColor=#647687;strokeColor=#314354;html=1;fontColor=#ffffff;align=center;verticalAlign=middle;fontStyle=0;fontSize=12;sketch=0;" parent="247" vertex="1">
                    <mxGeometry x="20" y="60" width="86" height="33" as="geometry"/>
                </mxCell>
                <mxCell id="280" value="Note Name" style="html=1;shadow=0;dashed=0;shape=mxgraph.bootstrap.rrect;rSize=5;strokeColor=#FF0000;strokeWidth=1;fillColor=#E9ECEF;fontColor=#505050;whiteSpace=wrap;align=left;verticalAlign=middle;spacingLeft=5;fontSize=14;" parent="1" vertex="1">
                    <mxGeometry x="490" y="130" width="220" height="30" as="geometry"/>
                </mxCell>
                <mxCell id="282" value="User Note Text&lt;br&gt;" style="html=1;shadow=0;dashed=0;shape=mxgraph.bootstrap.rrect;rSize=5;strokeColor=#000000;strokeWidth=1;fillColor=#E9ECEF;fontColor=#505050;whiteSpace=wrap;align=left;verticalAlign=top;spacingLeft=5;fontSize=14;" parent="1" vertex="1">
                    <mxGeometry x="490" y="175" width="220" height="125" as="geometry"/>
                </mxCell>
                <mxCell id="285" value="After click in Delete Button&lt;br&gt;show Modal" style="text;html=1;align=center;verticalAlign=middle;resizable=0;points=[];autosize=1;strokeColor=none;fillColor=none;" parent="1" vertex="1">
                    <mxGeometry x="160" y="380" width="160" height="30" as="geometry"/>
                </mxCell>
                <mxCell id="286" value="Frontend - Programmer Design&amp;nbsp;" style="text;html=1;align=center;verticalAlign=middle;resizable=0;points=[];autosize=1;strokeColor=none;fillColor=none;fontSize=22;" parent="1" vertex="1">
                    <mxGeometry x="270" y="45" width="330" height="30" as="geometry"/>
                </mxCell>
                <mxCell id="287" value="&lt;span class=&quot;VIiyi&quot; lang=&quot;en&quot;&gt;Lock the background so the &lt;br&gt;user doesn't try &lt;br&gt;to change something while &lt;br&gt;the modal is open.&lt;/span&gt;" style="text;html=1;align=center;verticalAlign=middle;resizable=0;points=[];autosize=1;strokeColor=none;fillColor=none;fontSize=12;" parent="1" vertex="1">
                    <mxGeometry x="320" y="630" width="160" height="60" as="geometry"/>
                </mxCell>
                <mxCell id="288" value="List" style="text;html=1;align=center;verticalAlign=middle;resizable=0;points=[];autosize=1;strokeColor=none;fillColor=none;fontSize=12;" parent="1" vertex="1">
                    <mxGeometry x="185" y="100" width="30" height="20" as="geometry"/>
                </mxCell>
                <mxCell id="289" value="Create / Edit" style="text;html=1;align=center;verticalAlign=middle;resizable=0;points=[];autosize=1;strokeColor=none;fillColor=none;fontSize=12;" parent="1" vertex="1">
                    <mxGeometry x="560" y="100" width="80" height="20" as="geometry"/>
                </mxCell>
                <mxCell id="290" value="Delete" style="text;html=1;align=center;verticalAlign=middle;resizable=0;points=[];autosize=1;strokeColor=none;fillColor=none;fontSize=12;" parent="1" vertex="1">
                    <mxGeometry x="175" y="461" width="50" height="20" as="geometry"/>
                </mxCell>
                <mxCell id="EaEItY076bmjdVlsAYLv-327" value="" style="rounded=0;whiteSpace=wrap;html=1;" parent="1" vertex="1">
                    <mxGeometry x="480" y="481" width="240" height="240" as="geometry"/>
                </mxCell>
                <mxCell id="EaEItY076bmjdVlsAYLv-328" value="Save" style="rounded=1;fillColor=#0057D8;strokeColor=none;html=1;fontColor=#ffffff;align=center;verticalAlign=middle;fontStyle=0;fontSize=12;sketch=0;" parent="1" vertex="1">
                    <mxGeometry x="620" y="671" width="86" height="33" as="geometry"/>
                </mxCell>
                <mxCell id="EaEItY076bmjdVlsAYLv-329" value="Back" style="rounded=1;fillColor=#647687;strokeColor=#314354;html=1;fontColor=#ffffff;align=center;verticalAlign=middle;fontStyle=0;fontSize=12;sketch=0;" parent="1" vertex="1">
                    <mxGeometry x="545" y="676" width="66" height="23" as="geometry"/>
                </mxCell>
                <mxCell id="EaEItY076bmjdVlsAYLv-330" value="Note Name" style="html=1;shadow=0;dashed=0;shape=mxgraph.bootstrap.rrect;rSize=5;strokeColor=#CED4DA;strokeWidth=1;fillColor=#E9ECEF;fontColor=#505050;whiteSpace=wrap;align=left;verticalAlign=middle;spacingLeft=5;fontSize=14;" parent="1" vertex="1">
                    <mxGeometry x="490" y="491" width="220" height="30" as="geometry"/>
                </mxCell>
                <mxCell id="EaEItY076bmjdVlsAYLv-331" value="User Note Text&lt;br&gt;" style="html=1;shadow=0;dashed=0;shape=mxgraph.bootstrap.rrect;rSize=5;strokeColor=#CED4DA;strokeWidth=1;fillColor=#E9ECEF;fontColor=#505050;whiteSpace=wrap;align=left;verticalAlign=top;spacingLeft=5;fontSize=14;" parent="1" vertex="1">
                    <mxGeometry x="490" y="536" width="220" height="125" as="geometry"/>
                </mxCell>
                <mxCell id="EaEItY076bmjdVlsAYLv-322" value="" style="rounded=0;whiteSpace=wrap;html=1;strokeWidth=1;fillColor=#E6E6E6;opacity=50;" parent="1" vertex="1">
                    <mxGeometry x="480" y="481" width="240" height="240" as="geometry"/>
                </mxCell>
                <mxCell id="EaEItY076bmjdVlsAYLv-323" value="" style="group" parent="1" vertex="1" connectable="0">
                    <mxGeometry x="490" y="533.5" width="230" height="180" as="geometry"/>
                </mxCell>
                <mxCell id="EaEItY076bmjdVlsAYLv-332" value="" style="group" parent="EaEItY076bmjdVlsAYLv-323" vertex="1" connectable="0">
                    <mxGeometry y="19" width="220" height="90" as="geometry"/>
                </mxCell>
                <mxCell id="EaEItY076bmjdVlsAYLv-324" value="Your note has been saved" style="rounded=1;whiteSpace=wrap;html=1;verticalAlign=top;spacingTop=9;arcSize=9;" parent="EaEItY076bmjdVlsAYLv-332" vertex="1">
                    <mxGeometry width="220" height="90" as="geometry"/>
                </mxCell>
                <mxCell id="EaEItY076bmjdVlsAYLv-325" value="OK" style="rounded=1;fillColor=#0057D8;strokeColor=none;html=1;fontColor=#ffffff;align=center;verticalAlign=middle;fontStyle=0;fontSize=12;sketch=0;" parent="EaEItY076bmjdVlsAYLv-332" vertex="1">
                    <mxGeometry x="67" y="49" width="86" height="33" as="geometry"/>
                </mxCell>
                <mxCell id="EaEItY076bmjdVlsAYLv-334" value="After click Save Button" style="text;html=1;align=center;verticalAlign=middle;resizable=0;points=[];autosize=1;strokeColor=none;fillColor=none;fontColor=#000000;" parent="1" vertex="1">
                    <mxGeometry x="600" y="420" width="140" height="20" as="geometry"/>
                </mxCell>
                <mxCell id="EaEItY076bmjdVlsAYLv-338" value="" style="html=1;shadow=0;dashed=0;align=center;verticalAlign=middle;shape=mxgraph.arrows2.jumpInArrow;dy=3.64;dx=35.15;arrowHead=43.64;fontColor=#000000;fillColor=default;rotation=135;" parent="1" vertex="1">
                    <mxGeometry x="233.23" y="331.95" width="130" height="125" as="geometry"/>
                </mxCell>
                <mxCell id="EaEItY076bmjdVlsAYLv-339" value="" style="html=1;shadow=0;dashed=0;align=center;verticalAlign=middle;shape=mxgraph.arrows2.jumpInArrow;dy=3.64;dx=35.15;arrowHead=43.64;fontColor=#000000;fillColor=default;rotation=-60;" parent="1" vertex="1">
                    <mxGeometry x="11.32" y="393.46" width="150" height="133.5" as="geometry"/>
                </mxCell>
                <mxCell id="EaEItY076bmjdVlsAYLv-340" value="Back with the same list if cancel &lt;br&gt;or re-render the list if deleted" style="text;html=1;align=center;verticalAlign=middle;resizable=0;points=[];autosize=1;strokeColor=none;fillColor=none;fontColor=#000000;" parent="1" vertex="1">
                    <mxGeometry x="-140" y="456" width="180" height="30" as="geometry"/>
                </mxCell>
                <mxCell id="EaEItY076bmjdVlsAYLv-341" value="" style="html=1;shadow=0;dashed=0;align=center;verticalAlign=middle;shape=mxgraph.arrows2.jumpInArrow;dy=3.64;dx=35.15;arrowHead=43.64;fontColor=#000000;fillColor=default;rotation=5;flipH=0;flipV=0;" parent="1" vertex="1">
                    <mxGeometry x="216.76999999999998" y="170" width="163.23" height="156.95" as="geometry"/>
                </mxCell>
                <mxCell id="208" value="After click in Add Button" style="text;html=1;align=center;verticalAlign=middle;resizable=0;points=[];autosize=1;strokeColor=none;fillColor=none;" parent="1" vertex="1">
                    <mxGeometry x="330" y="150" width="140" height="20" as="geometry"/>
                </mxCell>
                <mxCell id="EaEItY076bmjdVlsAYLv-342" value="" style="html=1;shadow=0;dashed=0;align=center;verticalAlign=middle;shape=mxgraph.arrows2.jumpInArrow;dy=3.64;dx=35.15;arrowHead=43.64;fontColor=#000000;fillColor=default;rotation=5;flipH=0;flipV=0;" parent="1" vertex="1">
                    <mxGeometry x="269.25" y="222.13" width="140" height="71.95" as="geometry"/>
                </mxCell>
                <mxCell id="EaEItY076bmjdVlsAYLv-343" value="" style="html=1;shadow=0;dashed=0;align=center;verticalAlign=middle;shape=mxgraph.arrows2.jumpInArrow;dy=3.64;dx=35.15;arrowHead=43.64;fontColor=#000000;fillColor=default;rotation=-150;flipH=0;flipV=0;" parent="1" vertex="1">
                    <mxGeometry x="347.98" y="286.35" width="180.94" height="113.84" as="geometry"/>
                </mxCell>
                <mxCell id="EaEItY076bmjdVlsAYLv-345" value="" style="html=1;shadow=0;dashed=0;align=center;verticalAlign=middle;shape=mxgraph.arrows2.jumpInArrow;dy=3.64;dx=35.15;arrowHead=43.64;fontColor=#000000;fillColor=default;rotation=-120;flipH=0;flipV=0;" parent="1" vertex="1">
                    <mxGeometry x="300.06" y="474.52" width="271.69" height="94" as="geometry"/>
                </mxCell>
                <mxCell id="EaEItY076bmjdVlsAYLv-346" value="" style="html=1;shadow=0;dashed=0;align=center;verticalAlign=middle;shape=mxgraph.arrows2.jumpInArrow;dy=3.64;dx=35.15;arrowHead=43.64;fontColor=#000000;fillColor=default;rotation=128;flipH=0;flipV=0;" parent="1" vertex="1">
                    <mxGeometry x="630" y="370.01" width="163.23" height="156.95" as="geometry"/>
                </mxCell>
                <mxCell id="eqCaHA1GZhh8EYtgGVdC-290" value="Required Data" style="text;html=1;align=center;verticalAlign=middle;resizable=0;points=[];autosize=1;strokeColor=#b85450;fillColor=#f8cecc;" parent="1" vertex="1">
                    <mxGeometry x="730" y="135" width="90" height="20" as="geometry"/>
                </mxCell>
            </root>
        </mxGraphModel>
    </diagram>
    <diagram id="BRGTrU8Wb2V3nsxj3pLw" name="User - Actions">
        <mxGraphModel dx="1507" dy="779" grid="1" gridSize="10" guides="1" tooltips="1" connect="1" arrows="1" fold="1" page="1" pageScale="1" pageWidth="850" pageHeight="1100" math="0" shadow="0">
            <root>
                <mxCell id="SMPAIkwjAXv7Qzdz-42Z-0"/>
                <mxCell id="SMPAIkwjAXv7Qzdz-42Z-1" parent="SMPAIkwjAXv7Qzdz-42Z-0"/>
                <mxCell id="BnZ0J-qzzlxM2dDFkj54-8" value="User Action in Note App (Happy Way)" style="swimlane;childLayout=stackLayout;resizeParent=1;resizeParentMax=0;horizontal=1;startSize=20;horizontalStack=0;fontColor=#000000;fillColor=#B3B3B3;" parent="SMPAIkwjAXv7Qzdz-42Z-1" vertex="1">
                    <mxGeometry x="40" y="40" width="2400" height="530" as="geometry"/>
                </mxCell>
                <mxCell id="BnZ0J-qzzlxM2dDFkj54-9" value="User" style="swimlane;startSize=20;horizontal=0;fontColor=#000000;fillColor=#B3B3B3;" parent="BnZ0J-qzzlxM2dDFkj54-8" vertex="1">
                    <mxGeometry y="20" width="2400" height="120" as="geometry"/>
                </mxCell>
                <mxCell id="BnZ0J-qzzlxM2dDFkj54-12" value="" style="strokeWidth=2;html=1;shape=mxgraph.flowchart.start_2;whiteSpace=wrap;fontColor=#000000;fillColor=#FF0000;" parent="BnZ0J-qzzlxM2dDFkj54-9" vertex="1">
                    <mxGeometry x="120" y="40" width="40" height="40" as="geometry"/>
                </mxCell>
                <mxCell id="BnZ0J-qzzlxM2dDFkj54-29" value="" style="ellipse;html=1;shape=endState;fillColor=#000000;strokeColor=#ff0000;fontColor=#000000;" parent="BnZ0J-qzzlxM2dDFkj54-9" vertex="1">
                    <mxGeometry x="280" y="40" width="40" height="40" as="geometry"/>
                </mxCell>
                <mxCell id="BnZ0J-qzzlxM2dDFkj54-31" value="Start" style="text;html=1;align=center;verticalAlign=middle;resizable=0;points=[];autosize=1;strokeColor=none;fillColor=none;fontColor=#000000;" parent="BnZ0J-qzzlxM2dDFkj54-9" vertex="1">
                    <mxGeometry x="120" y="20" width="40" height="20" as="geometry"/>
                </mxCell>
                <mxCell id="BnZ0J-qzzlxM2dDFkj54-32" value="End" style="text;html=1;align=center;verticalAlign=middle;resizable=0;points=[];autosize=1;strokeColor=none;fillColor=none;fontColor=#000000;" parent="BnZ0J-qzzlxM2dDFkj54-9" vertex="1">
                    <mxGeometry x="280" y="20" width="40" height="20" as="geometry"/>
                </mxCell>
                <mxCell id="E4swDlK3YtuHg63Aa6ob-5" style="edgeStyle=orthogonalEdgeStyle;html=1;exitX=1;exitY=0.5;exitDx=0;exitDy=0;entryX=0;entryY=0.5;entryDx=0;entryDy=0;fontColor=#000000;" parent="BnZ0J-qzzlxM2dDFkj54-9" source="E4swDlK3YtuHg63Aa6ob-2" target="E4swDlK3YtuHg63Aa6ob-4" edge="1">
                    <mxGeometry relative="1" as="geometry"/>
                </mxCell>
                <mxCell id="E4swDlK3YtuHg63Aa6ob-2" value="User insert the data" style="rounded=1;whiteSpace=wrap;html=1;fontColor=#000000;fillColor=default;" parent="BnZ0J-qzzlxM2dDFkj54-9" vertex="1">
                    <mxGeometry x="600" y="30" width="120" height="60" as="geometry"/>
                </mxCell>
                <mxCell id="E4swDlK3YtuHg63Aa6ob-4" value="User press Save Button" style="rounded=1;whiteSpace=wrap;html=1;fontColor=#000000;fillColor=default;" parent="BnZ0J-qzzlxM2dDFkj54-9" vertex="1">
                    <mxGeometry x="760" y="30" width="120" height="60" as="geometry"/>
                </mxCell>
                <mxCell id="E4swDlK3YtuHg63Aa6ob-70" value="" style="strokeWidth=2;html=1;shape=mxgraph.flowchart.start_2;whiteSpace=wrap;fontColor=#000000;fillColor=#FF0000;" parent="BnZ0J-qzzlxM2dDFkj54-9" vertex="1">
                    <mxGeometry x="1159" y="40" width="40" height="40" as="geometry"/>
                </mxCell>
                <mxCell id="E4swDlK3YtuHg63Aa6ob-68" value="User edit the note" style="rounded=1;whiteSpace=wrap;html=1;fontColor=#000000;fillColor=default;" parent="BnZ0J-qzzlxM2dDFkj54-9" vertex="1">
                    <mxGeometry x="1279" y="30" width="120" height="60" as="geometry"/>
                </mxCell>
                <mxCell id="E4swDlK3YtuHg63Aa6ob-69" value="User press Save Button" style="rounded=1;whiteSpace=wrap;html=1;fontColor=#000000;fillColor=default;" parent="BnZ0J-qzzlxM2dDFkj54-9" vertex="1">
                    <mxGeometry x="1439" y="30" width="120" height="60" as="geometry"/>
                </mxCell>
                <mxCell id="E4swDlK3YtuHg63Aa6ob-67" style="edgeStyle=orthogonalEdgeStyle;html=1;exitX=1;exitY=0.5;exitDx=0;exitDy=0;entryX=0;entryY=0.5;entryDx=0;entryDy=0;fontColor=#000000;" parent="BnZ0J-qzzlxM2dDFkj54-9" source="E4swDlK3YtuHg63Aa6ob-68" target="E4swDlK3YtuHg63Aa6ob-69" edge="1">
                    <mxGeometry relative="1" as="geometry"/>
                </mxCell>
                <mxCell id="E4swDlK3YtuHg63Aa6ob-71" value="" style="ellipse;html=1;shape=endState;fillColor=#000000;strokeColor=#ff0000;fontColor=#000000;" parent="BnZ0J-qzzlxM2dDFkj54-9" vertex="1">
                    <mxGeometry x="1639" y="40" width="40" height="40" as="geometry"/>
                </mxCell>
                <mxCell id="E4swDlK3YtuHg63Aa6ob-73" value="End" style="text;html=1;align=center;verticalAlign=middle;resizable=0;points=[];autosize=1;strokeColor=none;fillColor=none;fontColor=#000000;" parent="BnZ0J-qzzlxM2dDFkj54-9" vertex="1">
                    <mxGeometry x="1639" y="20" width="40" height="20" as="geometry"/>
                </mxCell>
                <mxCell id="E4swDlK3YtuHg63Aa6ob-98" value="" style="strokeWidth=2;html=1;shape=mxgraph.flowchart.start_2;whiteSpace=wrap;fontColor=#000000;fillColor=#FF0000;" parent="BnZ0J-qzzlxM2dDFkj54-9" vertex="1">
                    <mxGeometry x="1800" y="40" width="40" height="40" as="geometry"/>
                </mxCell>
                <mxCell id="E4swDlK3YtuHg63Aa6ob-99" value="Start" style="text;html=1;align=center;verticalAlign=middle;resizable=0;points=[];autosize=1;strokeColor=none;fillColor=none;fontColor=#000000;" parent="BnZ0J-qzzlxM2dDFkj54-9" vertex="1">
                    <mxGeometry x="1800" y="20" width="40" height="20" as="geometry"/>
                </mxCell>
                <mxCell id="E4swDlK3YtuHg63Aa6ob-101" value="" style="ellipse;html=1;shape=endState;fillColor=#000000;strokeColor=#ff0000;fontColor=#000000;" parent="BnZ0J-qzzlxM2dDFkj54-9" vertex="1">
                    <mxGeometry x="2280" y="40" width="40" height="40" as="geometry"/>
                </mxCell>
                <mxCell id="E4swDlK3YtuHg63Aa6ob-102" value="End" style="text;html=1;align=center;verticalAlign=middle;resizable=0;points=[];autosize=1;strokeColor=none;fillColor=none;fontColor=#000000;" parent="BnZ0J-qzzlxM2dDFkj54-9" vertex="1">
                    <mxGeometry x="2280" y="20" width="40" height="20" as="geometry"/>
                </mxCell>
                <mxCell id="E4swDlK3YtuHg63Aa6ob-104" value="User Confirm to delete Note" style="rounded=1;whiteSpace=wrap;html=1;fontColor=#000000;fillColor=default;" parent="BnZ0J-qzzlxM2dDFkj54-9" vertex="1">
                    <mxGeometry x="2080" y="30" width="120" height="60" as="geometry"/>
                </mxCell>
                <mxCell id="E4swDlK3YtuHg63Aa6ob-119" value="List" style="text;html=1;align=center;verticalAlign=middle;resizable=0;points=[];autosize=1;strokeColor=none;fillColor=none;fontColor=#000000;" parent="BnZ0J-qzzlxM2dDFkj54-9" vertex="1">
                    <mxGeometry x="200" width="30" height="20" as="geometry"/>
                </mxCell>
                <mxCell id="E4swDlK3YtuHg63Aa6ob-120" value="Create" style="text;html=1;align=center;verticalAlign=middle;resizable=0;points=[];autosize=1;strokeColor=none;fillColor=none;fontColor=#000000;" parent="BnZ0J-qzzlxM2dDFkj54-9" vertex="1">
                    <mxGeometry x="710" width="50" height="20" as="geometry"/>
                </mxCell>
                <mxCell id="E4swDlK3YtuHg63Aa6ob-121" value="Edit" style="text;html=1;align=center;verticalAlign=middle;resizable=0;points=[];autosize=1;strokeColor=none;fillColor=none;fontColor=#000000;" parent="BnZ0J-qzzlxM2dDFkj54-9" vertex="1">
                    <mxGeometry x="1399" width="40" height="20" as="geometry"/>
                </mxCell>
                <mxCell id="E4swDlK3YtuHg63Aa6ob-122" value="Delete" style="text;html=1;align=center;verticalAlign=middle;resizable=0;points=[];autosize=1;strokeColor=none;fillColor=none;fontColor=#000000;" parent="BnZ0J-qzzlxM2dDFkj54-9" vertex="1">
                    <mxGeometry x="2030" width="50" height="20" as="geometry"/>
                </mxCell>
                <mxCell id="BnZ0J-qzzlxM2dDFkj54-10" value="Frontend" style="swimlane;startSize=20;horizontal=0;fontColor=#000000;fillColor=#B3B3B3;" parent="BnZ0J-qzzlxM2dDFkj54-8" vertex="1">
                    <mxGeometry y="140" width="2400" height="120" as="geometry"/>
                </mxCell>
                <mxCell id="BnZ0J-qzzlxM2dDFkj54-14" value="User access the Note App" style="rounded=1;whiteSpace=wrap;html=1;fontColor=#000000;fillColor=default;" parent="BnZ0J-qzzlxM2dDFkj54-10" vertex="1">
                    <mxGeometry x="80" y="30" width="120" height="60" as="geometry"/>
                </mxCell>
                <mxCell id="BnZ0J-qzzlxM2dDFkj54-27" value="Render the list of all user Notes" style="rounded=1;whiteSpace=wrap;html=1;fontColor=#000000;fillColor=default;" parent="BnZ0J-qzzlxM2dDFkj54-10" vertex="1">
                    <mxGeometry x="240" y="30" width="120" height="60" as="geometry"/>
                </mxCell>
                <mxCell id="BnZ0J-qzzlxM2dDFkj54-34" value="" style="strokeWidth=2;html=1;shape=mxgraph.flowchart.start_2;whiteSpace=wrap;fontColor=#000000;fillColor=#FF0000;" parent="BnZ0J-qzzlxM2dDFkj54-10" vertex="1">
                    <mxGeometry x="480" y="-80" width="40" height="40" as="geometry"/>
                </mxCell>
                <mxCell id="BnZ0J-qzzlxM2dDFkj54-35" value="" style="ellipse;html=1;shape=endState;fillColor=#000000;strokeColor=#ff0000;fontColor=#000000;" parent="BnZ0J-qzzlxM2dDFkj54-10" vertex="1">
                    <mxGeometry x="960" y="-80" width="40" height="40" as="geometry"/>
                </mxCell>
                <mxCell id="BnZ0J-qzzlxM2dDFkj54-36" value="Start" style="text;html=1;align=center;verticalAlign=middle;resizable=0;points=[];autosize=1;strokeColor=none;fillColor=none;fontColor=#000000;" parent="BnZ0J-qzzlxM2dDFkj54-10" vertex="1">
                    <mxGeometry x="480" y="-100" width="40" height="20" as="geometry"/>
                </mxCell>
                <mxCell id="BnZ0J-qzzlxM2dDFkj54-37" value="End" style="text;html=1;align=center;verticalAlign=middle;resizable=0;points=[];autosize=1;strokeColor=none;fillColor=none;fontColor=#000000;" parent="BnZ0J-qzzlxM2dDFkj54-10" vertex="1">
                    <mxGeometry x="960" y="-100" width="40" height="20" as="geometry"/>
                </mxCell>
                <mxCell id="E4swDlK3YtuHg63Aa6ob-1" style="edgeStyle=orthogonalEdgeStyle;html=1;exitX=1;exitY=0.5;exitDx=0;exitDy=0;entryX=0;entryY=0.5;entryDx=0;entryDy=0;fontColor=#000000;" parent="BnZ0J-qzzlxM2dDFkj54-10" source="BnZ0J-qzzlxM2dDFkj54-38" target="E4swDlK3YtuHg63Aa6ob-0" edge="1">
                    <mxGeometry relative="1" as="geometry"/>
                </mxCell>
                <mxCell id="BnZ0J-qzzlxM2dDFkj54-38" value="User wants to add a new Note" style="rounded=1;whiteSpace=wrap;html=1;fontColor=#000000;fillColor=default;" parent="BnZ0J-qzzlxM2dDFkj54-10" vertex="1">
                    <mxGeometry x="440" y="30" width="120" height="60" as="geometry"/>
                </mxCell>
                <mxCell id="BnZ0J-qzzlxM2dDFkj54-39" value="Return 200 (data was seved)" style="rounded=1;whiteSpace=wrap;html=1;fontColor=#000000;fillColor=default;" parent="BnZ0J-qzzlxM2dDFkj54-10" vertex="1">
                    <mxGeometry x="920" y="30" width="120" height="60" as="geometry"/>
                </mxCell>
                <mxCell id="BnZ0J-qzzlxM2dDFkj54-40" style="edgeStyle=none;html=1;exitX=0.5;exitY=1;exitDx=0;exitDy=0;exitPerimeter=0;entryX=0.5;entryY=0;entryDx=0;entryDy=0;fontColor=#000000;" parent="BnZ0J-qzzlxM2dDFkj54-10" source="BnZ0J-qzzlxM2dDFkj54-34" target="BnZ0J-qzzlxM2dDFkj54-38" edge="1">
                    <mxGeometry relative="1" as="geometry"/>
                </mxCell>
                <mxCell id="BnZ0J-qzzlxM2dDFkj54-41" style="edgeStyle=orthogonalEdgeStyle;html=1;exitX=0.5;exitY=0;exitDx=0;exitDy=0;entryX=0.5;entryY=1;entryDx=0;entryDy=0;fontColor=#000000;" parent="BnZ0J-qzzlxM2dDFkj54-10" source="BnZ0J-qzzlxM2dDFkj54-39" target="BnZ0J-qzzlxM2dDFkj54-35" edge="1">
                    <mxGeometry relative="1" as="geometry"/>
                </mxCell>
                <mxCell id="E4swDlK3YtuHg63Aa6ob-0" value="Render Note Form" style="rounded=1;whiteSpace=wrap;html=1;fontColor=#000000;fillColor=default;" parent="BnZ0J-qzzlxM2dDFkj54-10" vertex="1">
                    <mxGeometry x="600" y="30" width="120" height="60" as="geometry"/>
                </mxCell>
                <mxCell id="E4swDlK3YtuHg63Aa6ob-6" value="Get all data and send to backend" style="rounded=1;whiteSpace=wrap;html=1;fontColor=#000000;fillColor=default;" parent="BnZ0J-qzzlxM2dDFkj54-10" vertex="1">
                    <mxGeometry x="760" y="30" width="120" height="60" as="geometry"/>
                </mxCell>
                <mxCell id="E4swDlK3YtuHg63Aa6ob-75" value="User wants to edit a Note" style="rounded=1;whiteSpace=wrap;html=1;fontColor=#000000;fillColor=default;" parent="BnZ0J-qzzlxM2dDFkj54-10" vertex="1">
                    <mxGeometry x="1119" y="30" width="120" height="60" as="geometry"/>
                </mxCell>
                <mxCell id="E4swDlK3YtuHg63Aa6ob-80" value="Get all data and send to backend" style="rounded=1;whiteSpace=wrap;html=1;fontColor=#000000;fillColor=default;" parent="BnZ0J-qzzlxM2dDFkj54-10" vertex="1">
                    <mxGeometry x="1439" y="30" width="120" height="60" as="geometry"/>
                </mxCell>
                <mxCell id="E4swDlK3YtuHg63Aa6ob-76" value="Return 200 (data was seved)" style="rounded=1;whiteSpace=wrap;html=1;fontColor=#000000;fillColor=default;" parent="BnZ0J-qzzlxM2dDFkj54-10" vertex="1">
                    <mxGeometry x="1599" y="30" width="120" height="60" as="geometry"/>
                </mxCell>
                <mxCell id="E4swDlK3YtuHg63Aa6ob-79" value="Render Note Form with previous data" style="rounded=1;whiteSpace=wrap;html=1;fontColor=#000000;fillColor=default;" parent="BnZ0J-qzzlxM2dDFkj54-10" vertex="1">
                    <mxGeometry x="1280" y="30" width="120" height="60" as="geometry"/>
                </mxCell>
                <mxCell id="E4swDlK3YtuHg63Aa6ob-111" style="edgeStyle=orthogonalEdgeStyle;html=1;exitX=1;exitY=0.5;exitDx=0;exitDy=0;entryX=0;entryY=0.5;entryDx=0;entryDy=0;fontColor=#000000;" parent="BnZ0J-qzzlxM2dDFkj54-10" source="E4swDlK3YtuHg63Aa6ob-100" target="E4swDlK3YtuHg63Aa6ob-103" edge="1">
                    <mxGeometry relative="1" as="geometry"/>
                </mxCell>
                <mxCell id="E4swDlK3YtuHg63Aa6ob-100" value="User want to delete a Note" style="rounded=1;whiteSpace=wrap;html=1;fontColor=#000000;fillColor=default;" parent="BnZ0J-qzzlxM2dDFkj54-10" vertex="1">
                    <mxGeometry x="1760" y="30" width="120" height="60" as="geometry"/>
                </mxCell>
                <mxCell id="E4swDlK3YtuHg63Aa6ob-103" value="Show Modal to confirm" style="rounded=1;whiteSpace=wrap;html=1;fontColor=#000000;fillColor=default;" parent="BnZ0J-qzzlxM2dDFkj54-10" vertex="1">
                    <mxGeometry x="1920" y="30" width="120" height="60" as="geometry"/>
                </mxCell>
                <mxCell id="E4swDlK3YtuHg63Aa6ob-105" value="Send id to delete Note" style="rounded=1;whiteSpace=wrap;html=1;fontColor=#000000;fillColor=default;" parent="BnZ0J-qzzlxM2dDFkj54-10" vertex="1">
                    <mxGeometry x="2080" y="30" width="120" height="60" as="geometry"/>
                </mxCell>
                <mxCell id="E4swDlK3YtuHg63Aa6ob-115" value="Return 200 (data was deleted)" style="rounded=1;whiteSpace=wrap;html=1;fontColor=#000000;fillColor=default;" parent="BnZ0J-qzzlxM2dDFkj54-10" vertex="1">
                    <mxGeometry x="2240" y="30" width="120" height="60" as="geometry"/>
                </mxCell>
                <mxCell id="BnZ0J-qzzlxM2dDFkj54-18" value="Backend" style="swimlane;startSize=20;horizontal=0;fontColor=#000000;fillColor=#B3B3B3;" parent="BnZ0J-qzzlxM2dDFkj54-8" vertex="1">
                    <mxGeometry y="260" width="2400" height="270" as="geometry"/>
                </mxCell>
                <mxCell id="BnZ0J-qzzlxM2dDFkj54-24" style="edgeStyle=none;html=1;exitX=0.5;exitY=1;exitDx=0;exitDy=0;entryX=0.5;entryY=0;entryDx=0;entryDy=0;entryPerimeter=0;fontColor=#000000;dashed=1;" parent="BnZ0J-qzzlxM2dDFkj54-18" source="BnZ0J-qzzlxM2dDFkj54-19" target="BnZ0J-qzzlxM2dDFkj54-23" edge="1">
                    <mxGeometry relative="1" as="geometry"/>
                </mxCell>
                <mxCell id="BnZ0J-qzzlxM2dDFkj54-19" value="Return User Notes" style="rounded=1;whiteSpace=wrap;html=1;fontColor=#000000;fillColor=default;" parent="BnZ0J-qzzlxM2dDFkj54-18" vertex="1">
                    <mxGeometry x="80" y="30" width="120" height="60" as="geometry"/>
                </mxCell>
                <mxCell id="BnZ0J-qzzlxM2dDFkj54-23" value="" style="shape=cylinder3;whiteSpace=wrap;html=1;boundedLbl=1;backgroundOutline=1;size=15;fontColor=#000000;fillColor=default;" parent="BnZ0J-qzzlxM2dDFkj54-18" vertex="1">
                    <mxGeometry x="110" y="160" width="60" height="80" as="geometry"/>
                </mxCell>
                <mxCell id="BnZ0J-qzzlxM2dDFkj54-26" value="&lt;span style=&quot;font-family: &amp;#34;helvetica&amp;#34;&quot;&gt;Get all user notes&lt;br&gt;&lt;/span&gt;" style="text;html=1;align=center;verticalAlign=middle;resizable=0;points=[];autosize=1;strokeColor=none;fillColor=none;fontColor=#000000;" parent="BnZ0J-qzzlxM2dDFkj54-18" vertex="1">
                    <mxGeometry x="140" y="120" width="110" height="20" as="geometry"/>
                </mxCell>
                <mxCell id="E4swDlK3YtuHg63Aa6ob-15" style="edgeStyle=orthogonalEdgeStyle;html=1;exitX=0.5;exitY=1;exitDx=0;exitDy=0;fontColor=#000000;" parent="BnZ0J-qzzlxM2dDFkj54-18" source="E4swDlK3YtuHg63Aa6ob-8" target="E4swDlK3YtuHg63Aa6ob-9" edge="1">
                    <mxGeometry relative="1" as="geometry"/>
                </mxCell>
                <mxCell id="E4swDlK3YtuHg63Aa6ob-8" value="Validate data" style="rounded=1;whiteSpace=wrap;html=1;fontColor=#000000;fillColor=default;" parent="BnZ0J-qzzlxM2dDFkj54-18" vertex="1">
                    <mxGeometry x="760" y="40" width="120" height="60" as="geometry"/>
                </mxCell>
                <mxCell id="E4swDlK3YtuHg63Aa6ob-12" style="edgeStyle=orthogonalEdgeStyle;html=1;exitX=0;exitY=0.5;exitDx=0;exitDy=0;entryX=1;entryY=0.5;entryDx=0;entryDy=0;entryPerimeter=0;fontColor=#000000;dashed=1;" parent="BnZ0J-qzzlxM2dDFkj54-18" source="E4swDlK3YtuHg63Aa6ob-9" target="E4swDlK3YtuHg63Aa6ob-11" edge="1">
                    <mxGeometry relative="1" as="geometry"/>
                </mxCell>
                <mxCell id="E4swDlK3YtuHg63Aa6ob-9" value="Add timestamp&lt;br&gt;date of registry" style="rounded=1;whiteSpace=wrap;html=1;fontColor=#000000;fillColor=default;" parent="BnZ0J-qzzlxM2dDFkj54-18" vertex="1">
                    <mxGeometry x="760" y="140" width="120" height="60" as="geometry"/>
                </mxCell>
                <mxCell id="E4swDlK3YtuHg63Aa6ob-11" value="" style="shape=cylinder3;whiteSpace=wrap;html=1;boundedLbl=1;backgroundOutline=1;size=15;fontColor=#000000;fillColor=default;" parent="BnZ0J-qzzlxM2dDFkj54-18" vertex="1">
                    <mxGeometry x="610" y="130" width="60" height="80" as="geometry"/>
                </mxCell>
                <mxCell id="E4swDlK3YtuHg63Aa6ob-13" value="Save the data" style="text;html=1;align=center;verticalAlign=middle;resizable=0;points=[];autosize=1;strokeColor=none;fillColor=none;fontColor=#000000;" parent="BnZ0J-qzzlxM2dDFkj54-18" vertex="1">
                    <mxGeometry x="670" y="140" width="90" height="20" as="geometry"/>
                </mxCell>
                <mxCell id="E4swDlK3YtuHg63Aa6ob-82" value="Validate data" style="rounded=1;whiteSpace=wrap;html=1;fontColor=#000000;fillColor=default;" parent="BnZ0J-qzzlxM2dDFkj54-18" vertex="1">
                    <mxGeometry x="1439" y="40" width="120" height="60" as="geometry"/>
                </mxCell>
                <mxCell id="E4swDlK3YtuHg63Aa6ob-85" value="" style="shape=cylinder3;whiteSpace=wrap;html=1;boundedLbl=1;backgroundOutline=1;size=15;fontColor=#000000;fillColor=default;" parent="BnZ0J-qzzlxM2dDFkj54-18" vertex="1">
                    <mxGeometry x="1289" y="130" width="60" height="80" as="geometry"/>
                </mxCell>
                <mxCell id="E4swDlK3YtuHg63Aa6ob-83" style="edgeStyle=orthogonalEdgeStyle;html=1;exitX=0.5;exitY=1;exitDx=0;exitDy=0;entryX=1;entryY=0.5;entryDx=0;entryDy=0;entryPerimeter=0;fontColor=#000000;dashed=1;" parent="BnZ0J-qzzlxM2dDFkj54-18" source="E4swDlK3YtuHg63Aa6ob-82" target="E4swDlK3YtuHg63Aa6ob-85" edge="1">
                    <mxGeometry relative="1" as="geometry">
                        <mxPoint x="1439" y="169.99999999999977" as="sourcePoint"/>
                    </mxGeometry>
                </mxCell>
                <mxCell id="E4swDlK3YtuHg63Aa6ob-86" value="Update the data" style="text;html=1;align=center;verticalAlign=middle;resizable=0;points=[];autosize=1;strokeColor=none;fillColor=none;fontColor=#000000;" parent="BnZ0J-qzzlxM2dDFkj54-18" vertex="1">
                    <mxGeometry x="1380" y="140" width="100" height="20" as="geometry"/>
                </mxCell>
                <mxCell id="E4swDlK3YtuHg63Aa6ob-94" style="edgeStyle=orthogonalEdgeStyle;html=1;exitX=0.5;exitY=1;exitDx=0;exitDy=0;entryX=0;entryY=0.5;entryDx=0;entryDy=0;entryPerimeter=0;fontColor=#000000;dashed=1;" parent="BnZ0J-qzzlxM2dDFkj54-18" source="E4swDlK3YtuHg63Aa6ob-92" target="E4swDlK3YtuHg63Aa6ob-85" edge="1">
                    <mxGeometry relative="1" as="geometry"/>
                </mxCell>
                <mxCell id="E4swDlK3YtuHg63Aa6ob-92" value="Return Note Data" style="rounded=1;whiteSpace=wrap;html=1;fontColor=#000000;fillColor=default;" parent="BnZ0J-qzzlxM2dDFkj54-18" vertex="1">
                    <mxGeometry x="1119" y="40" width="120" height="60" as="geometry"/>
                </mxCell>
                <mxCell id="E4swDlK3YtuHg63Aa6ob-97" value="&lt;span&gt;Get Note Data&lt;/span&gt;" style="text;html=1;align=center;verticalAlign=middle;resizable=0;points=[];autosize=1;strokeColor=none;fillColor=none;fontColor=#000000;" parent="BnZ0J-qzzlxM2dDFkj54-18" vertex="1">
                    <mxGeometry x="1180" y="140" width="90" height="20" as="geometry"/>
                </mxCell>
                <mxCell id="E4swDlK3YtuHg63Aa6ob-106" value="Delete the Note" style="rounded=1;whiteSpace=wrap;html=1;fontColor=#000000;fillColor=default;" parent="BnZ0J-qzzlxM2dDFkj54-18" vertex="1">
                    <mxGeometry x="2080" y="40" width="120" height="60" as="geometry"/>
                </mxCell>
                <mxCell id="E4swDlK3YtuHg63Aa6ob-107" value="" style="shape=cylinder3;whiteSpace=wrap;html=1;boundedLbl=1;backgroundOutline=1;size=15;fontColor=#000000;fillColor=default;" parent="BnZ0J-qzzlxM2dDFkj54-18" vertex="1">
                    <mxGeometry x="1920" y="30" width="60" height="80" as="geometry"/>
                </mxCell>
                <mxCell id="E4swDlK3YtuHg63Aa6ob-108" style="edgeStyle=orthogonalEdgeStyle;html=1;exitX=0;exitY=0.5;exitDx=0;exitDy=0;entryX=1;entryY=0.5;entryDx=0;entryDy=0;entryPerimeter=0;fontColor=#000000;dashed=1;" parent="BnZ0J-qzzlxM2dDFkj54-18" source="E4swDlK3YtuHg63Aa6ob-106" target="E4swDlK3YtuHg63Aa6ob-107" edge="1">
                    <mxGeometry relative="1" as="geometry">
                        <mxPoint x="1509" y="110" as="sourcePoint"/>
                        <mxPoint x="1359" y="180" as="targetPoint"/>
                    </mxGeometry>
                </mxCell>
                <mxCell id="E4swDlK3YtuHg63Aa6ob-109" value="Delete Note" style="text;html=1;align=center;verticalAlign=middle;resizable=0;points=[];autosize=1;strokeColor=none;fillColor=none;fontColor=#000000;" parent="BnZ0J-qzzlxM2dDFkj54-18" vertex="1">
                    <mxGeometry x="1980" y="40" width="80" height="20" as="geometry"/>
                </mxCell>
                <mxCell id="BnZ0J-qzzlxM2dDFkj54-21" style="edgeStyle=none;html=1;exitX=0.5;exitY=1;exitDx=0;exitDy=0;exitPerimeter=0;entryX=0.5;entryY=0;entryDx=0;entryDy=0;fontColor=#000000;" parent="BnZ0J-qzzlxM2dDFkj54-8" source="BnZ0J-qzzlxM2dDFkj54-12" target="BnZ0J-qzzlxM2dDFkj54-14" edge="1">
                    <mxGeometry relative="1" as="geometry"/>
                </mxCell>
                <mxCell id="BnZ0J-qzzlxM2dDFkj54-22" style="edgeStyle=none;html=1;exitX=0.5;exitY=1;exitDx=0;exitDy=0;entryX=0.5;entryY=0;entryDx=0;entryDy=0;fontColor=#000000;" parent="BnZ0J-qzzlxM2dDFkj54-8" source="BnZ0J-qzzlxM2dDFkj54-14" target="BnZ0J-qzzlxM2dDFkj54-19" edge="1">
                    <mxGeometry relative="1" as="geometry"/>
                </mxCell>
                <mxCell id="BnZ0J-qzzlxM2dDFkj54-28" style="edgeStyle=orthogonalEdgeStyle;html=1;exitX=1;exitY=0.5;exitDx=0;exitDy=0;entryX=0.5;entryY=1;entryDx=0;entryDy=0;fontColor=#000000;" parent="BnZ0J-qzzlxM2dDFkj54-8" source="BnZ0J-qzzlxM2dDFkj54-19" target="BnZ0J-qzzlxM2dDFkj54-27" edge="1">
                    <mxGeometry relative="1" as="geometry"/>
                </mxCell>
                <mxCell id="BnZ0J-qzzlxM2dDFkj54-30" style="edgeStyle=orthogonalEdgeStyle;html=1;exitX=0.5;exitY=0;exitDx=0;exitDy=0;entryX=0.5;entryY=1;entryDx=0;entryDy=0;fontColor=#000000;" parent="BnZ0J-qzzlxM2dDFkj54-8" source="BnZ0J-qzzlxM2dDFkj54-27" target="BnZ0J-qzzlxM2dDFkj54-29" edge="1">
                    <mxGeometry relative="1" as="geometry"/>
                </mxCell>
                <mxCell id="E4swDlK3YtuHg63Aa6ob-3" style="edgeStyle=orthogonalEdgeStyle;html=1;exitX=0.5;exitY=0;exitDx=0;exitDy=0;entryX=0.5;entryY=1;entryDx=0;entryDy=0;fontColor=#000000;" parent="BnZ0J-qzzlxM2dDFkj54-8" source="E4swDlK3YtuHg63Aa6ob-0" target="E4swDlK3YtuHg63Aa6ob-2" edge="1">
                    <mxGeometry relative="1" as="geometry"/>
                </mxCell>
                <mxCell id="E4swDlK3YtuHg63Aa6ob-7" style="edgeStyle=orthogonalEdgeStyle;html=1;exitX=0.5;exitY=1;exitDx=0;exitDy=0;entryX=0.5;entryY=0;entryDx=0;entryDy=0;fontColor=#000000;" parent="BnZ0J-qzzlxM2dDFkj54-8" source="E4swDlK3YtuHg63Aa6ob-4" target="E4swDlK3YtuHg63Aa6ob-6" edge="1">
                    <mxGeometry relative="1" as="geometry"/>
                </mxCell>
                <mxCell id="E4swDlK3YtuHg63Aa6ob-14" style="edgeStyle=orthogonalEdgeStyle;html=1;exitX=0.5;exitY=1;exitDx=0;exitDy=0;entryX=0.5;entryY=0;entryDx=0;entryDy=0;fontColor=#000000;" parent="BnZ0J-qzzlxM2dDFkj54-8" source="E4swDlK3YtuHg63Aa6ob-6" target="E4swDlK3YtuHg63Aa6ob-8" edge="1">
                    <mxGeometry relative="1" as="geometry"/>
                </mxCell>
                <mxCell id="E4swDlK3YtuHg63Aa6ob-18" style="edgeStyle=orthogonalEdgeStyle;html=1;exitX=1;exitY=0.5;exitDx=0;exitDy=0;entryX=0.5;entryY=1;entryDx=0;entryDy=0;fontColor=#000000;" parent="BnZ0J-qzzlxM2dDFkj54-8" source="E4swDlK3YtuHg63Aa6ob-9" target="BnZ0J-qzzlxM2dDFkj54-39" edge="1">
                    <mxGeometry relative="1" as="geometry"/>
                </mxCell>
                <mxCell id="E4swDlK3YtuHg63Aa6ob-77" style="edgeStyle=none;html=1;exitX=0.5;exitY=1;exitDx=0;exitDy=0;exitPerimeter=0;entryX=0.5;entryY=0;entryDx=0;entryDy=0;fontColor=#000000;" parent="BnZ0J-qzzlxM2dDFkj54-8" source="E4swDlK3YtuHg63Aa6ob-70" target="E4swDlK3YtuHg63Aa6ob-75" edge="1">
                    <mxGeometry relative="1" as="geometry"/>
                </mxCell>
                <mxCell id="E4swDlK3YtuHg63Aa6ob-88" style="edgeStyle=orthogonalEdgeStyle;html=1;exitX=0.5;exitY=1;exitDx=0;exitDy=0;entryX=0.5;entryY=0;entryDx=0;entryDy=0;fontColor=#000000;" parent="BnZ0J-qzzlxM2dDFkj54-8" source="E4swDlK3YtuHg63Aa6ob-69" target="E4swDlK3YtuHg63Aa6ob-80" edge="1">
                    <mxGeometry relative="1" as="geometry"/>
                </mxCell>
                <mxCell id="E4swDlK3YtuHg63Aa6ob-78" style="edgeStyle=orthogonalEdgeStyle;html=1;exitX=0.5;exitY=0;exitDx=0;exitDy=0;entryX=0.5;entryY=1;entryDx=0;entryDy=0;fontColor=#000000;" parent="BnZ0J-qzzlxM2dDFkj54-8" source="E4swDlK3YtuHg63Aa6ob-76" target="E4swDlK3YtuHg63Aa6ob-71" edge="1">
                    <mxGeometry relative="1" as="geometry"/>
                </mxCell>
                <mxCell id="E4swDlK3YtuHg63Aa6ob-89" style="edgeStyle=orthogonalEdgeStyle;html=1;exitX=0.5;exitY=1;exitDx=0;exitDy=0;entryX=0.5;entryY=0;entryDx=0;entryDy=0;fontColor=#000000;" parent="BnZ0J-qzzlxM2dDFkj54-8" source="E4swDlK3YtuHg63Aa6ob-80" target="E4swDlK3YtuHg63Aa6ob-82" edge="1">
                    <mxGeometry relative="1" as="geometry"/>
                </mxCell>
                <mxCell id="E4swDlK3YtuHg63Aa6ob-90" style="edgeStyle=orthogonalEdgeStyle;html=1;exitX=1;exitY=0.5;exitDx=0;exitDy=0;entryX=0.5;entryY=1;entryDx=0;entryDy=0;fontColor=#000000;" parent="BnZ0J-qzzlxM2dDFkj54-8" source="E4swDlK3YtuHg63Aa6ob-82" target="E4swDlK3YtuHg63Aa6ob-76" edge="1">
                    <mxGeometry relative="1" as="geometry">
                        <mxPoint x="1559" y="429.9999999999998" as="sourcePoint"/>
                    </mxGeometry>
                </mxCell>
                <mxCell id="E4swDlK3YtuHg63Aa6ob-91" style="edgeStyle=orthogonalEdgeStyle;html=1;exitX=0.5;exitY=0;exitDx=0;exitDy=0;entryX=0.5;entryY=1;entryDx=0;entryDy=0;fontColor=#000000;" parent="BnZ0J-qzzlxM2dDFkj54-8" source="E4swDlK3YtuHg63Aa6ob-79" target="E4swDlK3YtuHg63Aa6ob-68" edge="1">
                    <mxGeometry relative="1" as="geometry"/>
                </mxCell>
                <mxCell id="E4swDlK3YtuHg63Aa6ob-93" style="edgeStyle=orthogonalEdgeStyle;html=1;exitX=0.5;exitY=1;exitDx=0;exitDy=0;entryX=0.5;entryY=0;entryDx=0;entryDy=0;fontColor=#000000;" parent="BnZ0J-qzzlxM2dDFkj54-8" source="E4swDlK3YtuHg63Aa6ob-75" target="E4swDlK3YtuHg63Aa6ob-92" edge="1">
                    <mxGeometry relative="1" as="geometry"/>
                </mxCell>
                <mxCell id="E4swDlK3YtuHg63Aa6ob-95" style="edgeStyle=orthogonalEdgeStyle;html=1;exitX=1;exitY=0.5;exitDx=0;exitDy=0;entryX=0.5;entryY=1;entryDx=0;entryDy=0;fontColor=#000000;" parent="BnZ0J-qzzlxM2dDFkj54-8" source="E4swDlK3YtuHg63Aa6ob-92" target="E4swDlK3YtuHg63Aa6ob-79" edge="1">
                    <mxGeometry relative="1" as="geometry"/>
                </mxCell>
                <mxCell id="E4swDlK3YtuHg63Aa6ob-110" style="edgeStyle=orthogonalEdgeStyle;html=1;exitX=0.5;exitY=1;exitDx=0;exitDy=0;exitPerimeter=0;entryX=0.5;entryY=0;entryDx=0;entryDy=0;fontColor=#000000;" parent="BnZ0J-qzzlxM2dDFkj54-8" source="E4swDlK3YtuHg63Aa6ob-98" target="E4swDlK3YtuHg63Aa6ob-100" edge="1">
                    <mxGeometry relative="1" as="geometry"/>
                </mxCell>
                <mxCell id="E4swDlK3YtuHg63Aa6ob-112" style="edgeStyle=orthogonalEdgeStyle;html=1;exitX=0.5;exitY=0;exitDx=0;exitDy=0;entryX=0;entryY=0.5;entryDx=0;entryDy=0;fontColor=#000000;" parent="BnZ0J-qzzlxM2dDFkj54-8" source="E4swDlK3YtuHg63Aa6ob-103" target="E4swDlK3YtuHg63Aa6ob-104" edge="1">
                    <mxGeometry relative="1" as="geometry"/>
                </mxCell>
                <mxCell id="E4swDlK3YtuHg63Aa6ob-113" style="edgeStyle=orthogonalEdgeStyle;html=1;exitX=0.5;exitY=1;exitDx=0;exitDy=0;entryX=0.5;entryY=0;entryDx=0;entryDy=0;fontColor=#000000;" parent="BnZ0J-qzzlxM2dDFkj54-8" source="E4swDlK3YtuHg63Aa6ob-104" target="E4swDlK3YtuHg63Aa6ob-105" edge="1">
                    <mxGeometry relative="1" as="geometry"/>
                </mxCell>
                <mxCell id="E4swDlK3YtuHg63Aa6ob-114" style="edgeStyle=orthogonalEdgeStyle;html=1;exitX=0.5;exitY=1;exitDx=0;exitDy=0;entryX=0.5;entryY=0;entryDx=0;entryDy=0;fontColor=#000000;" parent="BnZ0J-qzzlxM2dDFkj54-8" source="E4swDlK3YtuHg63Aa6ob-105" target="E4swDlK3YtuHg63Aa6ob-106" edge="1">
                    <mxGeometry relative="1" as="geometry"/>
                </mxCell>
                <mxCell id="E4swDlK3YtuHg63Aa6ob-116" style="edgeStyle=orthogonalEdgeStyle;html=1;exitX=0.5;exitY=0;exitDx=0;exitDy=0;entryX=0.5;entryY=1;entryDx=0;entryDy=0;fontColor=#000000;" parent="BnZ0J-qzzlxM2dDFkj54-8" source="E4swDlK3YtuHg63Aa6ob-115" target="E4swDlK3YtuHg63Aa6ob-101" edge="1">
                    <mxGeometry relative="1" as="geometry"/>
                </mxCell>
                <mxCell id="E4swDlK3YtuHg63Aa6ob-117" style="edgeStyle=orthogonalEdgeStyle;html=1;exitX=1;exitY=0.5;exitDx=0;exitDy=0;entryX=0.5;entryY=1;entryDx=0;entryDy=0;fontColor=#000000;" parent="BnZ0J-qzzlxM2dDFkj54-8" source="E4swDlK3YtuHg63Aa6ob-106" target="E4swDlK3YtuHg63Aa6ob-115" edge="1">
                    <mxGeometry relative="1" as="geometry"/>
                </mxCell>
                <mxCell id="E4swDlK3YtuHg63Aa6ob-72" value="Start" style="text;html=1;align=center;verticalAlign=middle;resizable=0;points=[];autosize=1;strokeColor=none;fillColor=none;fontColor=#000000;" parent="SMPAIkwjAXv7Qzdz-42Z-1" vertex="1">
                    <mxGeometry x="1199" y="80" width="40" height="20" as="geometry"/>
                </mxCell>
            </root>
        </mxGraphModel>
    </diagram>
    <diagram id="yQ-Krwsg4L9F_jhns8Tv" name="Table">
        <mxGraphModel dx="1507" dy="779" grid="1" gridSize="10" guides="1" tooltips="1" connect="1" arrows="1" fold="1" page="1" pageScale="1" pageWidth="850" pageHeight="1100" math="0" shadow="0">
            <root>
                <mxCell id="dac1dDiiQYrkwHtlXhKc-0"/>
                <mxCell id="dac1dDiiQYrkwHtlXhKc-1" parent="dac1dDiiQYrkwHtlXhKc-0"/>
                <mxCell id="dac1dDiiQYrkwHtlXhKc-2" value="user_note" style="shape=table;startSize=30;container=1;collapsible=1;childLayout=tableLayout;fixedRows=1;rowLines=0;fontStyle=1;align=center;resizeLast=1;fontColor=#000000;fillColor=default;" parent="dac1dDiiQYrkwHtlXhKc-1" vertex="1">
                    <mxGeometry x="40" y="40" width="180" height="180" as="geometry"/>
                </mxCell>
                <mxCell id="dac1dDiiQYrkwHtlXhKc-3" value="" style="shape=partialRectangle;collapsible=0;dropTarget=0;pointerEvents=0;fillColor=none;top=0;left=0;bottom=1;right=0;points=[[0,0.5],[1,0.5]];portConstraint=eastwest;fontColor=#000000;" parent="dac1dDiiQYrkwHtlXhKc-2" vertex="1">
                    <mxGeometry y="30" width="180" height="30" as="geometry"/>
                </mxCell>
                <mxCell id="dac1dDiiQYrkwHtlXhKc-4" value="PK" style="shape=partialRectangle;connectable=0;fillColor=none;top=0;left=0;bottom=0;right=0;fontStyle=1;overflow=hidden;fontColor=#000000;" parent="dac1dDiiQYrkwHtlXhKc-3" vertex="1">
                    <mxGeometry width="30" height="30" as="geometry">
                        <mxRectangle width="30" height="30" as="alternateBounds"/>
                    </mxGeometry>
                </mxCell>
                <mxCell id="dac1dDiiQYrkwHtlXhKc-5" value="cd_user_note" style="shape=partialRectangle;connectable=0;fillColor=none;top=0;left=0;bottom=0;right=0;align=left;spacingLeft=6;fontStyle=5;overflow=hidden;fontColor=#000000;" parent="dac1dDiiQYrkwHtlXhKc-3" vertex="1">
                    <mxGeometry x="30" width="150" height="30" as="geometry">
                        <mxRectangle width="150" height="30" as="alternateBounds"/>
                    </mxGeometry>
                </mxCell>
                <mxCell id="dac1dDiiQYrkwHtlXhKc-23" value="" style="shape=partialRectangle;collapsible=0;dropTarget=0;pointerEvents=0;fillColor=none;top=0;left=0;bottom=0;right=0;points=[[0,0.5],[1,0.5]];portConstraint=eastwest;fontColor=#000000;" parent="dac1dDiiQYrkwHtlXhKc-2" vertex="1">
                    <mxGeometry y="60" width="180" height="30" as="geometry"/>
                </mxCell>
                <mxCell id="dac1dDiiQYrkwHtlXhKc-24" value="FK" style="shape=partialRectangle;connectable=0;fillColor=none;top=0;left=0;bottom=0;right=0;fontStyle=0;overflow=hidden;fontColor=#000000;" parent="dac1dDiiQYrkwHtlXhKc-23" vertex="1">
                    <mxGeometry width="30" height="30" as="geometry">
                        <mxRectangle width="30" height="30" as="alternateBounds"/>
                    </mxGeometry>
                </mxCell>
                <mxCell id="dac1dDiiQYrkwHtlXhKc-25" value="cd_user" style="shape=partialRectangle;connectable=0;fillColor=none;top=0;left=0;bottom=0;right=0;align=left;spacingLeft=6;fontStyle=0;overflow=hidden;fontColor=#000000;" parent="dac1dDiiQYrkwHtlXhKc-23" vertex="1">
                    <mxGeometry x="30" width="150" height="30" as="geometry">
                        <mxRectangle width="150" height="30" as="alternateBounds"/>
                    </mxGeometry>
                </mxCell>
                <mxCell id="dac1dDiiQYrkwHtlXhKc-6" value="" style="shape=partialRectangle;collapsible=0;dropTarget=0;pointerEvents=0;fillColor=none;top=0;left=0;bottom=0;right=0;points=[[0,0.5],[1,0.5]];portConstraint=eastwest;fontColor=#000000;" parent="dac1dDiiQYrkwHtlXhKc-2" vertex="1">
                    <mxGeometry y="90" width="180" height="30" as="geometry"/>
                </mxCell>
                <mxCell id="dac1dDiiQYrkwHtlXhKc-7" value="" style="shape=partialRectangle;connectable=0;fillColor=none;top=0;left=0;bottom=0;right=0;editable=1;overflow=hidden;fontColor=#000000;" parent="dac1dDiiQYrkwHtlXhKc-6" vertex="1">
                    <mxGeometry width="30" height="30" as="geometry">
                        <mxRectangle width="30" height="30" as="alternateBounds"/>
                    </mxGeometry>
                </mxCell>
                <mxCell id="dac1dDiiQYrkwHtlXhKc-8" value="ds_name" style="shape=partialRectangle;connectable=0;fillColor=none;top=0;left=0;bottom=0;right=0;align=left;spacingLeft=6;overflow=hidden;fontColor=#000000;" parent="dac1dDiiQYrkwHtlXhKc-6" vertex="1">
                    <mxGeometry x="30" width="150" height="30" as="geometry">
                        <mxRectangle width="150" height="30" as="alternateBounds"/>
                    </mxGeometry>
                </mxCell>
                <mxCell id="dac1dDiiQYrkwHtlXhKc-9" value="" style="shape=partialRectangle;collapsible=0;dropTarget=0;pointerEvents=0;fillColor=none;top=0;left=0;bottom=0;right=0;points=[[0,0.5],[1,0.5]];portConstraint=eastwest;fontColor=#000000;" parent="dac1dDiiQYrkwHtlXhKc-2" vertex="1">
                    <mxGeometry y="120" width="180" height="30" as="geometry"/>
                </mxCell>
                <mxCell id="dac1dDiiQYrkwHtlXhKc-10" value="" style="shape=partialRectangle;connectable=0;fillColor=none;top=0;left=0;bottom=0;right=0;editable=1;overflow=hidden;fontColor=#000000;" parent="dac1dDiiQYrkwHtlXhKc-9" vertex="1">
                    <mxGeometry width="30" height="30" as="geometry">
                        <mxRectangle width="30" height="30" as="alternateBounds"/>
                    </mxGeometry>
                </mxCell>
                <mxCell id="dac1dDiiQYrkwHtlXhKc-11" value="tx_text" style="shape=partialRectangle;connectable=0;fillColor=none;top=0;left=0;bottom=0;right=0;align=left;spacingLeft=6;overflow=hidden;fontColor=#000000;" parent="dac1dDiiQYrkwHtlXhKc-9" vertex="1">
                    <mxGeometry x="30" width="150" height="30" as="geometry">
                        <mxRectangle width="150" height="30" as="alternateBounds"/>
                    </mxGeometry>
                </mxCell>
                <mxCell id="dac1dDiiQYrkwHtlXhKc-12" value="" style="shape=partialRectangle;collapsible=0;dropTarget=0;pointerEvents=0;fillColor=none;top=0;left=0;bottom=0;right=0;points=[[0,0.5],[1,0.5]];portConstraint=eastwest;fontColor=#000000;" parent="dac1dDiiQYrkwHtlXhKc-2" vertex="1">
                    <mxGeometry y="150" width="180" height="30" as="geometry"/>
                </mxCell>
                <mxCell id="dac1dDiiQYrkwHtlXhKc-13" value="" style="shape=partialRectangle;connectable=0;fillColor=none;top=0;left=0;bottom=0;right=0;editable=1;overflow=hidden;fontColor=#000000;" parent="dac1dDiiQYrkwHtlXhKc-12" vertex="1">
                    <mxGeometry width="30" height="30" as="geometry">
                        <mxRectangle width="30" height="30" as="alternateBounds"/>
                    </mxGeometry>
                </mxCell>
                <mxCell id="dac1dDiiQYrkwHtlXhKc-14" value="ts_registry" style="shape=partialRectangle;connectable=0;fillColor=none;top=0;left=0;bottom=0;right=0;align=left;spacingLeft=6;overflow=hidden;fontColor=#000000;" parent="dac1dDiiQYrkwHtlXhKc-12" vertex="1">
                    <mxGeometry x="30" width="150" height="30" as="geometry">
                        <mxRectangle width="150" height="30" as="alternateBounds"/>
                    </mxGeometry>
                </mxCell>
                <mxCell id="dac1dDiiQYrkwHtlXhKc-26" value="user" style="shape=table;startSize=30;container=1;collapsible=1;childLayout=tableLayout;fixedRows=1;rowLines=0;fontStyle=1;align=center;resizeLast=1;fontColor=#000000;fillColor=default;" parent="dac1dDiiQYrkwHtlXhKc-1" vertex="1">
                    <mxGeometry x="320" y="40" width="180" height="60" as="geometry"/>
                </mxCell>
                <mxCell id="dac1dDiiQYrkwHtlXhKc-27" value="" style="shape=partialRectangle;collapsible=0;dropTarget=0;pointerEvents=0;fillColor=none;top=0;left=0;bottom=1;right=0;points=[[0,0.5],[1,0.5]];portConstraint=eastwest;fontColor=#000000;" parent="dac1dDiiQYrkwHtlXhKc-26" vertex="1">
                    <mxGeometry y="30" width="180" height="30" as="geometry"/>
                </mxCell>
                <mxCell id="dac1dDiiQYrkwHtlXhKc-28" value="PK" style="shape=partialRectangle;connectable=0;fillColor=none;top=0;left=0;bottom=0;right=0;fontStyle=1;overflow=hidden;fontColor=#000000;" parent="dac1dDiiQYrkwHtlXhKc-27" vertex="1">
                    <mxGeometry width="30" height="30" as="geometry">
                        <mxRectangle width="30" height="30" as="alternateBounds"/>
                    </mxGeometry>
                </mxCell>
                <mxCell id="dac1dDiiQYrkwHtlXhKc-29" value="cd_user" style="shape=partialRectangle;connectable=0;fillColor=none;top=0;left=0;bottom=0;right=0;align=left;spacingLeft=6;fontStyle=5;overflow=hidden;fontColor=#000000;" parent="dac1dDiiQYrkwHtlXhKc-27" vertex="1">
                    <mxGeometry x="30" width="150" height="30" as="geometry">
                        <mxRectangle width="150" height="30" as="alternateBounds"/>
                    </mxGeometry>
                </mxCell>
                <mxCell id="dac1dDiiQYrkwHtlXhKc-43" style="edgeStyle=orthogonalEdgeStyle;html=1;exitX=1;exitY=0.5;exitDx=0;exitDy=0;entryX=0;entryY=0.5;entryDx=0;entryDy=0;fontColor=#000000;endArrow=ERone;endFill=0;startArrow=ERmany;startFill=0;" parent="dac1dDiiQYrkwHtlXhKc-1" source="dac1dDiiQYrkwHtlXhKc-23" target="dac1dDiiQYrkwHtlXhKc-27" edge="1">
                    <mxGeometry relative="1" as="geometry"/>
                </mxCell>
                <mxCell id="dac1dDiiQYrkwHtlXhKc-44" value="1" style="text;html=1;align=center;verticalAlign=middle;resizable=0;points=[];autosize=1;strokeColor=none;fillColor=none;fontColor=#000000;" parent="dac1dDiiQYrkwHtlXhKc-1" vertex="1">
                    <mxGeometry x="300" y="60" width="20" height="20" as="geometry"/>
                </mxCell>
                <mxCell id="dac1dDiiQYrkwHtlXhKc-45" value="N" style="text;html=1;align=center;verticalAlign=middle;resizable=0;points=[];autosize=1;strokeColor=none;fillColor=none;fontColor=#000000;" parent="dac1dDiiQYrkwHtlXhKc-1" vertex="1">
                    <mxGeometry x="220" y="90" width="20" height="20" as="geometry"/>
                </mxCell>
            </root>
        </mxGraphModel>
    </diagram>
</mxfile>